<svg xmlns="http://www.w3.org/2000/svg" width="42" height="42"><g data-name="42px@Circle"><circle data-name="Ellipse 10213-5" cx="21" cy="21" r="21" fill="#3da64e"/></g><path d="m32.854 17.49-1.75-6.127a.5.5 0 0 0-.481-.363H11.377a.5.5 0 0 0-.48.363L9.145 17.49a.4.4 0 0 0 .384.51h22.94a.4.4 0 0 0 .384-.51zM12.5 17h-2l1.5-5h2l-1.5 5zm4.75 0h-2l.75-5h2l-.75 5zM22 17h-2v-5h2v5zm2.75 0L24 12h2l.75 5h-2zm4.75 0L28 12h2l1.5 5h-2zm1.5 2v11a1 1 0 0 1-1 1H18V19h2v6h9v-6h2zM13 31h-1a1 1 0 0 1-1-1V19h2v12z" fill="#fff" data-name="24px@Icons"/></svg>